<mxfile host="65bd71144e">
    <diagram id="shdupDTZ3CQcdF76bUlP" name="第 1 页">
        <mxGraphModel dx="453" dy="254" grid="1" gridSize="10" guides="1" tooltips="1" connect="1" arrows="1" fold="1" page="1" pageScale="1" pageWidth="827" pageHeight="1169" math="0" shadow="0">
            <root>
                <mxCell id="0"/>
                <mxCell id="1" parent="0"/>
                <mxCell id="2" value="\n" style="ellipse;whiteSpace=wrap;html=1;fontSize=20;fontFamily=Times New Roman;" parent="1" vertex="1">
                    <mxGeometry x="220" y="460" width="40" height="40" as="geometry"/>
                </mxCell>
                <mxCell id="3" style="edgeStyle=none;html=1;fontSize=20;endArrow=none;endFill=0;fontFamily=Times New Roman;" parent="1" source="4" target="2" edge="1">
                    <mxGeometry relative="1" as="geometry">
                        <mxPoint x="240" y="450" as="sourcePoint"/>
                        <mxPoint x="250" y="470.00000000000006" as="targetPoint"/>
                    </mxGeometry>
                </mxCell>
                <mxCell id="4" value="4" style="ellipse;whiteSpace=wrap;html=1;fontSize=20;fontFamily=Times New Roman;" parent="1" vertex="1">
                    <mxGeometry x="250" y="410" width="40" height="40" as="geometry"/>
                </mxCell>
                <mxCell id="5" value="s" style="ellipse;whiteSpace=wrap;html=1;fontSize=20;fontFamily=Times New Roman;" parent="1" vertex="1">
                    <mxGeometry x="280" y="460" width="40" height="40" as="geometry"/>
                </mxCell>
                <mxCell id="6" style="edgeStyle=none;html=1;fontSize=20;endArrow=none;endFill=0;fontFamily=Times New Roman;" parent="1" source="4" target="5" edge="1">
                    <mxGeometry relative="1" as="geometry"/>
                </mxCell>
                <mxCell id="7" value="t" style="ellipse;whiteSpace=wrap;html=1;fontSize=20;fontFamily=Times New Roman;" parent="1" vertex="1">
                    <mxGeometry x="310" y="410" width="40" height="40" as="geometry"/>
                </mxCell>
                <mxCell id="8" style="edgeStyle=none;html=1;fontSize=20;endArrow=none;endFill=0;fontFamily=Times New Roman;" parent="1" source="10" target="4" edge="1">
                    <mxGeometry relative="1" as="geometry"/>
                </mxCell>
                <mxCell id="9" style="edgeStyle=none;html=1;fontSize=20;endArrow=none;endFill=0;fontFamily=Times New Roman;" parent="1" source="10" target="7" edge="1">
                    <mxGeometry relative="1" as="geometry"/>
                </mxCell>
                <mxCell id="10" value="8" style="ellipse;whiteSpace=wrap;html=1;fontSize=20;fontFamily=Times New Roman;" parent="1" vertex="1">
                    <mxGeometry x="280" y="360" width="40" height="40" as="geometry"/>
                </mxCell>
                <mxCell id="12" value="a" style="ellipse;whiteSpace=wrap;html=1;fontSize=19;fontFamily=Times New Roman;" parent="1" vertex="1">
                    <mxGeometry x="360" y="360" width="40" height="40" as="geometry"/>
                </mxCell>
                <mxCell id="13" value="i" style="ellipse;whiteSpace=wrap;html=1;fontSize=19;fontFamily=Times New Roman;" parent="1" vertex="1">
                    <mxGeometry x="460" y="360" width="40" height="40" as="geometry"/>
                </mxCell>
                <mxCell id="14" value="e" style="ellipse;whiteSpace=wrap;html=1;fontSize=19;fontFamily=Times New Roman;" parent="1" vertex="1">
                    <mxGeometry x="410" y="360" width="40" height="40" as="geometry"/>
                </mxCell>
                <mxCell id="15" value="r" style="ellipse;whiteSpace=wrap;html=1;fontSize=19;fontFamily=Times New Roman;" parent="1" vertex="1">
                    <mxGeometry x="510" y="360" width="40" height="40" as="geometry"/>
                </mxCell>
                <mxCell id="16" value="10" style="text;html=1;align=center;verticalAlign=middle;resizable=0;points=[];autosize=1;strokeColor=none;fillColor=none;fontFamily=Times New Roman;fontSize=19;" parent="1" vertex="1">
                    <mxGeometry x="360" y="325" width="40" height="40" as="geometry"/>
                </mxCell>
                <mxCell id="17" value="15" style="text;html=1;align=center;verticalAlign=middle;resizable=0;points=[];autosize=1;strokeColor=none;fillColor=none;fontFamily=Times New Roman;fontSize=19;" parent="1" vertex="1">
                    <mxGeometry x="410" y="325" width="40" height="40" as="geometry"/>
                </mxCell>
                <mxCell id="18" value="12" style="text;html=1;align=center;verticalAlign=middle;resizable=0;points=[];autosize=1;strokeColor=none;fillColor=none;fontFamily=Times New Roman;fontSize=19;" parent="1" vertex="1">
                    <mxGeometry x="460" y="325" width="40" height="40" as="geometry"/>
                </mxCell>
                <mxCell id="20" value="13" style="text;html=1;align=center;verticalAlign=middle;resizable=0;points=[];autosize=1;strokeColor=none;fillColor=none;fontFamily=Times New Roman;fontSize=19;" parent="1" vertex="1">
                    <mxGeometry x="510" y="325" width="40" height="40" as="geometry"/>
                </mxCell>
                <mxCell id="21" value="" style="rounded=0;whiteSpace=wrap;html=1;fillColor=none;fontColor=#F00;strokeColor=#FF0000;" vertex="1" parent="1">
                    <mxGeometry x="270" y="330" width="290" height="75" as="geometry"/>
                </mxCell>
                <mxCell id="22" value="Q" style="text;html=1;align=center;verticalAlign=middle;resizable=0;points=[];autosize=1;strokeColor=none;fillColor=none;fontSize=19;fontFamily=Times New Roman;fontColor=#F00;" vertex="1" parent="1">
                    <mxGeometry x="230" y="330" width="40" height="40" as="geometry"/>
                </mxCell>
            </root>
        </mxGraphModel>
    </diagram>
</mxfile>